<svg width="936" height="697" viewBox="0 0 936 697" fill="none" xmlns="http://www.w3.org/2000/svg">
<g filter="url(#filter0_d_7_37)">
<path d="M746.558 328.609C693.956 344.942 687.823 346.847 621.261 367.515C554.699 388.183 550.479 389.493 505.517 403.454C505.517 334 559.476 260.942 626.037 240.274C692.599 219.606 746.558 259.155 746.558 328.609Z" fill="#FFBD5A"/>
<path d="M79.0883 379.365L114.655 368.321C126.797 364.551 135.653 364.783 141.223 369.015C146.794 373.098 149.579 381.25 149.579 393.472V399.732C149.579 407.78 148.294 414.737 145.723 420.603C143.294 426.425 139.509 431.252 134.367 435.084V435.531C146.08 436.068 151.936 445.13 151.936 462.717V476.131C151.936 488.204 148.865 498.398 142.723 506.715C136.724 514.837 127.868 520.717 116.155 524.354L79.0883 535.864V379.365ZM111.87 432.904C116.584 431.44 120.083 429.086 122.369 425.843C124.797 422.555 126.011 417.93 126.011 411.968V403.249C126.011 397.586 125.011 393.797 123.011 391.884C121.154 389.927 118.155 389.592 114.012 390.878L102.657 394.404V435.764L111.87 432.904ZM116.155 501.997C120.297 500.711 123.368 498.64 125.368 495.783C127.368 492.777 128.368 488.443 128.368 482.779V469.141C128.368 461.987 127.154 457.445 124.725 455.517C122.44 453.394 118.583 453.176 113.155 454.861L102.657 458.121V506.189L116.155 501.997Z" fill="#FFFEF9"/>
<path d="M199.994 500.557C188.567 504.105 179.854 503.457 173.854 498.613C167.855 493.62 164.855 484.789 164.855 472.12V352.734L188.424 345.416V466.59C188.424 471.956 189.424 475.521 191.423 477.284C193.566 479.004 196.566 479.265 200.422 478.067C204.279 476.87 207.207 474.768 209.207 471.762C211.35 468.712 212.421 464.505 212.421 459.139V337.964L235.132 330.912V450.298C235.132 462.967 232.133 473.661 226.133 482.38C220.134 490.95 211.421 497.009 199.994 500.557Z" fill="#FFFEF9"/>
<path d="M251.918 325.7L286.842 314.856C298.984 311.086 307.84 311.317 313.41 315.549C318.981 319.632 321.766 327.785 321.766 340.006V349.62C321.766 365.866 316.624 377.747 306.34 385.262V385.71C312.053 385.724 316.053 388.134 318.338 392.939C320.767 397.7 321.981 404.7 321.981 413.941V441.44C321.981 445.912 322.124 449.519 322.409 452.262C322.695 454.856 323.409 457.317 324.552 459.645L300.555 467.097C299.698 464.829 299.126 462.622 298.841 460.475C298.555 458.328 298.412 454.348 298.412 448.535V419.918C298.412 412.764 297.27 408.126 294.984 406.003C292.842 403.837 289.056 403.596 283.628 405.282L275.487 407.81V474.88L251.918 482.199V325.7ZM284.057 382.792C288.771 381.328 292.27 378.974 294.556 375.731C296.984 372.443 298.198 367.818 298.198 361.857V349.784C298.198 344.12 297.198 340.332 295.198 338.419C293.341 336.462 290.342 336.126 286.199 337.412L275.487 340.739V385.453L284.057 382.792Z" fill="#FFFEF9"/>
<path d="M371.757 447.223C360.33 450.771 351.617 450.123 345.618 445.279C339.619 440.286 336.619 431.455 336.619 418.786V336.512C336.619 323.843 339.619 313.224 345.618 304.654C351.617 295.935 360.33 289.802 371.757 286.253C383.185 282.705 391.898 283.428 397.897 288.421C403.896 293.265 406.896 302.022 406.896 314.691V328.105L384.613 335.024V320.045C384.613 309.761 380.542 305.883 372.4 308.411C364.258 310.939 360.187 317.345 360.187 327.629V413.256C360.187 423.391 364.258 427.195 372.4 424.667C380.542 422.139 384.613 415.807 384.613 405.672V375.043L372.829 378.702V356.345L406.896 345.767V396.964C406.896 409.633 403.896 420.327 397.897 429.046C391.898 437.616 383.185 443.675 371.757 447.223Z" fill="#FFFEF9"/>
<path d="M422.028 272.88L486.305 252.921V275.278L445.596 287.918V329.279L477.949 319.233V341.59L445.596 351.636V399.703L486.305 387.062V409.419L422.028 429.378V272.88Z" fill="#FFFEF9"/>
<path d="M499.864 248.711L534.788 237.867C546.93 234.097 555.786 234.328 561.356 238.56C566.927 242.643 569.712 250.795 569.712 263.017V272.631C569.712 288.877 564.57 300.757 554.286 308.273V308.72C559.999 308.735 563.999 311.145 566.284 315.95C568.713 320.71 569.927 327.711 569.927 336.952V364.451C569.927 368.922 570.07 372.53 570.355 375.273C570.641 377.867 571.355 380.328 572.498 382.656L548.501 390.107C547.644 387.84 547.072 385.632 546.787 383.485C546.501 381.338 546.358 377.358 546.358 371.546V342.929C546.358 335.775 545.215 331.136 542.93 329.014C540.788 326.847 537.002 326.607 531.574 328.292L523.433 330.82V397.891L499.864 405.209V248.711ZM532.003 305.802C536.717 304.339 540.216 301.985 542.502 298.742C544.93 295.454 546.144 290.829 546.144 284.867V272.795C546.144 267.131 545.144 263.342 543.144 261.43C541.287 259.472 538.288 259.137 534.145 260.423L523.433 263.75V308.463L532.003 305.802Z" fill="#FFFEF9"/>
<path d="M620.594 211.223L644.162 203.905V267.622L669.445 259.772V196.055L693.013 188.736V345.235L669.445 352.553V282.129L644.162 289.979V360.404L620.594 367.722V211.223Z" fill="#FFFEF9"/>
<path d="M728.778 177.631L760.702 167.718L785.128 316.633L761.559 323.951L757.274 294.205V294.652L730.492 302.969L726.207 334.928L704.352 341.714L728.778 177.631ZM754.489 274.278L743.99 200.183L743.562 200.316L733.277 280.865L754.489 274.278Z" fill="#FFFEF9"/>
<path d="M805.154 176.273L780.515 183.924V161.567L853.363 138.947V161.304L828.723 168.954V303.096L805.154 310.414V176.273Z" fill="#FFFEF9"/>
</g>
<defs>
<filter id="filter0_d_7_37" x="0" y="0" width="935.339" height="696.179" filterUnits="userSpaceOnUse" color-interpolation-filters="sRGB">
<feFlood flood-opacity="0" result="BackgroundImageFix"/>
<feColorMatrix in="SourceAlpha" type="matrix" values="0 0 0 0 0 0 0 0 0 0 0 0 0 0 0 0 0 0 127 0" result="hardAlpha"/>
<feOffset dx="8" dy="10"/>
<feComposite in2="hardAlpha" operator="out"/>
<feColorMatrix type="matrix" values="0 0 0 0 0.991667 0 0 0 0 0.793333 0 0 0 0 0.495833 0 0 0 1 0"/>
<feBlend mode="normal" in2="BackgroundImageFix" result="effect1_dropShadow_7_37"/>
<feBlend mode="normal" in="SourceGraphic" in2="effect1_dropShadow_7_37" result="shape"/>
</filter>
</defs>
</svg>
